<svg xmlns="http://www.w3.org/2000/svg" width="752.188" height="714.941" viewBox="0 0 752.188 714.941">
  <path id="Layer_1" data-name="Layer 1" d="M0,261.5a7.911,7.911,0,0,1,4.368-2.735s1.985,0,3.176,2.735,6.75,3.282,0,4.376,0,4.923,0,4.376H17.867s-3.177-2.735-4.765-3.829,4.765-5.47,6.75-4.376h3.573a68.482,68.482,0,0,0-.794,9.3,2.289,2.289,0,0,0,3.971,0v-3.282c0-3.282,2.382,0,3.176,0s0-3.282,0-2.735,1.985,0,3.176,0h2.779c.4,0,0,0,0-3.282a3.706,3.706,0,0,1,5.161,0,29.353,29.353,0,0,0,0-4.923h1.191c2.382-7.111-5.162,0-5.956-3.282s0,0,0-2.735-1.985,0-2.779,0,0,0,0-3.829-2.779,3.829-4.764,4.923,2.779-3.282,2.382-4.923-1.985,0-2.382,0,0-4.376-1.985-4.923H25.014l-2.382-25.708v-3.829c0-.547-4.764,0-5.162,0s5.956-10.393,7.941-7.658,0,0,0,4.376v4.923c0,4.923-2.779,2.188,2.382,2.188l3.971,3.829,1.985,3.282c1.985,0,3.176,4.376,5.559,0v-26.8a75.208,75.208,0,0,0,0-13.128V181.09H37.323v-17.5c0-1.641,0-3.282,2.779-6.017s4.367,3.282,7.544,5.47,0-3.282-2.382-3.829H41.69a6.186,6.186,0,0,0,0-7.658H37.72c-1.588,0,5.162,0,7.941-3.282s-2.779-5.47-3.176-9.846,0-4.376,0-7.111,6.353-7.658,6.75-10.94a81.3,81.3,0,0,0,0-9.846V32.312h6.75a22.142,22.142,0,0,1-10.323-1.641H42.087a54.037,54.037,0,0,0,0,14.221V40.516a17.955,17.955,0,0,1,0,6.564v6.564h0v5.47c0,1.641,0,0-2.382,3.829l1.985,4.376c-3.176,0-3.176,0-3.176-5.47a112.19,112.19,0,0,0,0-11.487,45.834,45.834,0,0,0,0,10.393,40.544,40.544,0,0,1,0,9.846s0,5.47-2.382,0a28.5,28.5,0,0,1,0-8.2V38.328a137,137,0,0,0,0-18.05,40.735,40.735,0,0,1,11.514,0H97.674a32.861,32.861,0,0,0-17.867,0,115.384,115.384,0,0,0-19.455,0,102.126,102.126,0,0,1-18.264,0H36.926c-2.779,0-2.779,0-3.176,3.282a88.522,88.522,0,0,0,0,10.393V48.721h0v6.564c0,1.094-1.985,0-2.382,0s0,9.846,0,12.034a128.715,128.715,0,0,0,0,17.5q-.605,16.4,0,32.819V105.06c0-3.829,0-2.735,1.985,0a48.78,48.78,0,0,1,0,13.127c0,3.829-1.985,6.017-2.382,9.3q-.3,7.652,0,15.315v23.52a8.152,8.152,0,0,1,0-4.376V14.808c-1.985,0,0,10.94,0,13.674v18.6h0V41.063a56.426,56.426,0,0,1,0-8.2V17a66.94,66.94,0,0,1,0-12.58,152.851,152.851,0,0,1,22.632,0h50.425a47.314,47.314,0,0,1,8.735,0h28.984a14.555,14.555,0,0,1,8.338,0,28.915,28.915,0,0,0,9.529,0h20.249c7.941,0,15.485,0,23.029,3.282s17.073,0,25.014,0h16.279a11.485,11.485,0,0,1,9.529,0c3.573,0,0,0,2.382,3.282s4.765,0,6.75,0a24.7,24.7,0,0,1-12.706,0c0,4.376,5.956,3.282,8.735,3.282s5.162,0,3.971,3.282,3.573,0,0,0,4.367-6.017,4.367-7.658a5.193,5.193,0,0,1,0-2.735c0-8.752,0,0,2.382,3.282V7.151a32.39,32.39,0,0,0,0,3.829s0,12.034,3.97,5.47,2.779,0,3.176,4.923a36.88,36.88,0,0,0,0-6.564s-1.985,0,0-2.735,3.573,0,3.97,0,0,4.376,0,6.564,3.573,0,5.162,0h0c1.985,0,4.765-5.47,5.162-6.017s9.529-4.376,9.529.547a107.645,107.645,0,0,1,22.632,0h19.455s3.971-2.735,5.956,0,0,0,2.779,0a26.322,26.322,0,0,0,9.132,0,41.31,41.31,0,0,0,11.514,0l21.441-2.735L403.8,8.245h5.956a13.062,13.062,0,0,1,6.353,0v5.47c0,2.735-4.765,3.282-7.544,3.282H384.739s0-3.282,3.97,0,0,0,2.779,0,0-3.282,0-3.829,0,0,2.382,0h11.514v7.111c0,1.094,0,0,2.382,0h7.147c.794,0,0,0,0-3.282s4.765,6.017,4.765,5.47,0,0,2.779,0h38.911l17.47-2.735h3.573s1.985,4.923,3.176,5.47a7.016,7.016,0,0,0,4.765,0V21.919c0-3.282,1.985,3.282,2.382,3.282s0-3.829,0-3.829,0,3.829,2.779,3.282,0-5.47,2.779-4.376,0,4.923,3.573,3.282,0-4.923,0-4.376h0c0-3.282,6.353,3.829,7.941,3.829h3.176a19.216,19.216,0,0,1-11.117,0h-10.72c-1.191,0,4.368,6.017,3.97,6.564s0-3.829,0-5.47,0,3.282,2.382,0,0-4.376,4.765-2.735h13.9a11.767,11.767,0,0,0,9.529,0s-2.779,0-1.985-3.282,3.176,0,0,0,0,3.829,2.779,3.829,0-3.829,0-5.47h2.382q.059,1.64,0,3.282h5.559c5.559,0,4.368,6.017,4.368,2.735s5.956,0,5.559,3.282,0-3.282,0,0,0,4.923-3.97,5.47a32.666,32.666,0,0,0-10.323,0l-21.043,3.829c-11.911,0-24.22,3.282-36.131,3.829,0,0,9.926,0,7.544,3.829a21.664,21.664,0,0,1-5.956,0H470.9a10.808,10.808,0,0,0-7.147,0,15.425,15.425,0,0,0,8.735,0h24.22l2.382-1.641a52.839,52.839,0,0,1,13.1,0h4.368s4.368,0,3.97,3.282-9.529,0-10.72,0l-10.72,2.188h34.543c-2.779,0,0,3.282,0,3.829a12.49,12.49,0,0,0,6.353,0h4.368c-1.985,0,6.353-3.829,7.544-2.735a8.739,8.739,0,0,1,5.162,0s0,6.564,4.765,4.376,4.367-4.923,5.956-4.923,0,0,0,3.829,0,0,2.779,0,0,3.282,0,3.282V50.909c0-3.282,7.941,1.641,7.941,1.641H556.661c-1.191,0,0,0,0,3.282v-.547h5.559a7.3,7.3,0,0,1,4.765,0v3.282c0,3.282,4.367,0,5.956,0h3.97a28.915,28.915,0,0,0,9.529,0s-3.176-3.282,0-3.829,2.382,0,0,0,2.779-3.282,3.573-6.017,3.573,4.923,3.176,4.923a11.677,11.677,0,0,0,7.544,0s-7.147,0-2.382-3.282,2.779,0,3.97,0a8.739,8.739,0,0,1,5.162,0s0,3.282,1.985,3.282,0-3.282,0-2.735,0,4.376-2.779,3.829a42.417,42.417,0,0,1-8.338,0,106.451,106.451,0,0,0-18.661,0H519.735V58.02c0,3.282,0,0,2.779-2.735s5.956,5.47,7.147,5.47h94.5c1.191,0,0,6.564,0,8.752V112.17l1.985-3.829c1.985-3.829,0-4.376,0-6.017V95.761a75.153,75.153,0,0,1,0,16.409q-.289,7.379,0,14.768h-.4c2.382,0,0,0,0-3.282s2.382,0,0,0,3.573-13.127,3.573-15.315h0v-8.2c0-5.47,0-14.768,1.985-13.127s0-3.829,0-3.282,2.382-3.829,2.382-4.376,2.779,0,3.176,0,0,10.94,0,16.409v33.366s3.97-3.829,3.176,0,0-4.376,2.382-7.111,0,0,2.382,3.829,0,0,0,4.376a9.735,9.735,0,0,0,0,3.282,110.693,110.693,0,0,1,0,11.487v15.862q.295,7.1,0,14.221V159.211c.191-4.372.191-8.756,0-13.128v-6.564h16.279a49.664,49.664,0,0,0,0-7.658v-9.3a100.9,100.9,0,0,0,0-10.94,64.663,64.663,0,0,0,0-12.58s0,8.752-1.985,6.017,0-7.111,2.382-10.94a41.313,41.313,0,0,0,0-9.846s0-9.3,1.985-6.564,0,0,0,2.735a27.745,27.745,0,0,1,0,8.2V152.1a51.182,51.182,0,0,1,0,7.658V178.9a37.61,37.61,0,0,1,0,6.564,49.664,49.664,0,0,0,0,7.658v13.127a196.545,196.545,0,0,1,0,21.332v41.57c0,2.188-1.588,2.188-1.588,2.188v3.829c0,3.829,7.544,12.58,8.338,11.486s-2.382,0-3.573,0,0,4.376,0,6.017-3.176,0-3.573-2.735h-2.382v-4.376H659.1c0,3.282,0,0-2.382,0s0,8.752,0,10.393v1.094c0,2.188,0,0-2.382,3.282s0,6.017,0,8.2a45.893,45.893,0,0,1,0-7.111c-2.779,0,0,0-2.382,3.282a36.107,36.107,0,0,0,0,6.564V332.6a26.13,26.13,0,0,0,5.956-2.188h-3.176c.794,0,3.176-4.376,3.176-4.376v4.923c0,4.923-3.971,0-2.779,4.376s4.765,3.282,0,4.376,3.573,3.282,4.765,5.47,0,0,0,6.017,3.97,0,4.367,0-3.573,4.376-4.765,4.376,2.779,5.47,5.162,7.658,0,0,2.382,0,2.382,0,3.176-3.282H672.6v4.376c0-1.094-2.779,0-2.779,2.735s3.176,3.282,3.573,4.376,0,2.735,0,3.829,0,0,2.382,0h5.956l8.735,5.47h2.382v4.376c0,4.376,3.573,0,4.765,0a6.021,6.021,0,0,1-3.137,4.411,3.779,3.779,0,0,1-4.407-1.129c-2.779-2.735-7.147-4.376,0-6.017s-3.573-1.641-2.382-1.641h-8.338c2.779,0,3.176,0,4.367,3.282s-4.367,6.017-6.75,4.923-3.573-3.829-3.573,0,1.588-4.376,1.191-8.2a2.076,2.076,0,0,0-3.97,0v3.282c0,3.282-1.985-3.282-2.779-3.282s0,3.282-1.985,0,0,0-3.176,0a3.244,3.244,0,0,0-2.779,0v3.829a3.706,3.706,0,0,1-5.162,0v4.923h-2.779c-2.382,7.111,4.765,0,5.956,3.282V395.5h3.176c.794,0,0,0,0,3.282s4.368,19.691,6.353,19.144-2.382,3.282-1.985,4.376,1.985,0,2.382,3.282,0,3.829,1.985,4.923,2.779,0,3.971,0l-1.985,4.923h3.573v3.829c0,.547,4.368,0,5.162,0s-5.956,10.939-8.338,7.658,0,0,0-3.829a21.78,21.78,0,0,0,0-5.47c.4-2.188.4-2.188-2.779-2.188l-3.97-3.282v-3.282c-1.985,0-3.573-4.923-5.559,0v26.8a75.22,75.22,0,0,0,0,13.127h-1.985v6.017a11.181,11.181,0,0,1,0,4.923v5.47c3.97,4.923,2.382,4.923,0,4.923s-4.368-3.282-7.544-5.47,2.382,5.47,3.573,5.47h3.971a6.186,6.186,0,0,0,0,7.658h3.97c1.588,0-5.559,0-7.941,3.282s3.971,7.658,3.971,12.581v7.111c0,2.735-6.75,7.658-7.147,10.393s0,7.111,0,10.393v77.124h-6.75a33.774,33.774,0,0,1,6.353,3.282h3.573a57.82,57.82,0,0,0,0-14.221v4.923a12.614,12.614,0,0,1,0-6.564v-6.564a15.693,15.693,0,0,1,0-6.017v-7.658s3.176,0,3.573,4.923.4,8.752.4,8.752a25.354,25.354,0,0,0,0-10.94,36.787,36.787,0,0,1,0-9.3s0-5.47,2.382,0a28.5,28.5,0,0,1,0,8.2v24.067a137,137,0,0,0,0,18.05,37.852,37.852,0,0,1-11.117,0H599.145a32.577,32.577,0,0,0,17.867,0h37.719a8.171,8.171,0,0,0,5.162,0h3.176c.794,0,0-9.3,0-10.393v-17.5c0,7.658-1.985,0-1.985,0V595.7c0-.547,0,0,2.382,0a60.908,60.908,0,0,0,0-12.034V545.924h0a45.011,45.011,0,0,1,0-12.581,59.006,59.006,0,0,1,2.382-9.3V508.729c0-4.923,0-22.973,1.985-23.52s.4,4.923.4,4.923V636.175c2.382,0,0-11.487,0-14.221v-18.6c0-6.564,1.985-4.923,1.985,0V631.8a66.935,66.935,0,0,1,0,12.58H595.174a49.041,49.041,0,0,1-8.735,0H547.131a82.706,82.706,0,0,0-8.338,9.846H518.544l-23.029-2.735a132.148,132.148,0,0,0-25.411,0,16.476,16.476,0,0,1-5.162,0h-9.926c-.794,0,0,0,0-3.282a17.152,17.152,0,0,0-9.132,0c0,2.735,5.162,0,7.544,2.735a17.149,17.149,0,0,1-9.132,0c-3.573,0,0,0-2.382-3.282s-5.162,0-6.75,0a31.558,31.558,0,0,1,12.309,0c0-4.376-5.559,0-8.338-3.282s0,0,0,3.282-5.162,0-3.971-3.282-3.97,0,0,0-4.765,5.47-4.367,7.658,0,0,0,3.282,0,0-2.382-3.282v-.547s0-12.58-3.573-5.47c0,0-2.779-2.735-3.176-4.923s0,0,0,2.735a39.869,39.869,0,0,0,0,7.111h-3.97c-.4,0,0-4.376,0-6.017s-3.573,0-5.559,0h0c-1.985,0-4.765,4.923-5.162,6.017s-5.162,6.564-3.971,0a159.681,159.681,0,0,1-22.632-2.735h-9.132a28.884,28.884,0,0,0-6.75,0H343.843a41.309,41.309,0,0,0-11.514,0l-21.838,4.376H294.609a13.063,13.063,0,0,1-6.353,0,5.638,5.638,0,0,1,0-6.017c0-3.829,5.162-2.735,7.941-3.282a69.213,69.213,0,0,0,11.117,0h9.529c2.382,0,9.926,0,11.514-2.735s-6.353,0-5.559,0H308.109c-1.985,0,0,3.282-4.367,0s0,0-2.382,0,0,2.735,0,3.829h-7.544v-7.658c0-1.641,0,0-1.985,0h-7.147c-.4,0,0,0,0,2.735s-3.573,0-4.765,0,0,0-2.779,2.735-5.956,0-8.338,0a20.565,20.565,0,0,1-8.338,0,11.961,11.961,0,0,1-7.544,0V638.91c0-3.282,6.75,0,8.338,0H254.11a77.059,77.059,0,0,1-15.882,0H217.582v2.735s0-4.923-3.176-6.017a6.149,6.149,0,0,0-4.368,0v3.829c0,1.094,0-3.829-2.382-3.282s0,3.829,0,3.829,0-4.376-2.779-3.282,0,5.47-2.779,4.376,0-4.923-3.573-3.282,0,4.376,0,4.376v-2.735h0v3.282c0,3.282-6.353-4.376-7.941-3.829s-7.147,0-3.176,0a27,27,0,0,1,11.117-3.282h10.72l-4.367-6.017v4.923c0,1.094,0-2.735-1.985,0s-2.382,4.376-4.765,0H181.451a11.767,11.767,0,0,0-9.529,0s3.176,0,2.382,3.829-3.176,0,0,0,0-4.376-3.176-3.829,0,3.282,0,5.47h-7.941c-5.559,0-3.573-3.282-3.573,0s-5.559-3.282-5.162-3.282c0-5.47,0-4.923,3.97-5.47h9.926a147.42,147.42,0,0,1,21.441-3.829c11.911,0,23.823-3.282,36.131-3.829,0,0-9.926,0-7.544-3.829h6.75a10.809,10.809,0,0,0,7.147,0H185.421c-1.985,0-4.368,0-4.368-3.829s9.926,0,11.117,0h-26.6c.794,0,0-2.735-1.985-3.829s-4.765,0-6.353,0-6.75,0-4.765-2.735-1.985,3.282-3.573,2.735,0-2.735,0-3.282v2.735a8.74,8.74,0,0,1-5.162,0s0-7.111-4.367-4.376,0,4.376-3.176,3.829,0,0,0-3.829h-2.779v0c0,2.735-4.367-3.829-4.765-4.376a70.953,70.953,0,0,1-11.117,0h36.131c.794,0,0,0,0-3.282v.547H148.5a8.453,8.453,0,0,1-5.162,0l-1.985-3.282h-9.926a17.436,17.436,0,0,0-9.132,0s2.779,3.282,0,3.829-2.779,0,0,0-2.382,3.282-3.176,5.47l-3.573-4.376h-4.765a4.716,4.716,0,0,1-3.971,0h-5.559c-1.588,0,0-2.735,0-2.735l-1.985,2.735c0-4.923,0-4.376,2.382-4.376h87.35V594.6c0-2.735,0,0-3.176,0h-1.985c-1.985,0-5.559-4.923-6.75-4.923a13.885,13.885,0,0,0-4.765,0H99.262V576.007q.3-7.1,0-14.221c.4-8.013.4-16.054,0-24.067v3.829a36.1,36.1,0,0,0,0,6.564v9.3h0a107.636,107.636,0,0,1,0-15.862V526.232h.4c-2.382,0,0,0,1.985,3.829s-2.382,0-2.382,0h2.382c2.382,0-3.573,13.674-3.573,15.862v2.735a75.22,75.22,0,0,1,0-13.128c-2.382,3.829,0,15.862,0,20.785s0,14.768-1.985,13.674v3.282L93.306,577.1H92.115V527.326s-4.367,3.282-3.176,0,0,4.923-2.382,7.111-2.382,0-2.382-3.282v-7.111a110.692,110.692,0,0,1,0-11.486V496.7a85.758,85.758,0,0,1,0-14.221v15.862c-.2,4.371-.2,8.756,0,13.127v6.564a53.444,53.444,0,0,0,0,7.658V531.7a110.693,110.693,0,0,0,0,11.487v12.58c0,3.282,0-9.3,1.985-6.017s0,7.111-2.382,10.94a36.793,36.793,0,0,0,0,9.3s0,9.3-1.985,7.111a56.46,56.46,0,0,1,0-8.2V493.961a150.558,150.558,0,0,0,0-19.144V445.28a192.059,192.059,0,0,1,0-21.332V374.72a37.176,37.176,0,0,0-7.941-12.034h3.573c1.191,0,0-4.376,0-5.47s2.779,0,3.176,0H83.38a38.38,38.38,0,0,0,0,4.923h3.97a20.832,20.832,0,0,0,0-9.846v8.752a30.7,30.7,0,0,1,0-10.393c0-4.923,0,0,2.382-2.735s0-6.017,0-8.2a37.6,37.6,0,0,1,0,7.111c2.382,0,0,0,2.382-3.829V316.74a59.393,59.393,0,0,0-5.162,4.376H83.777c-1.191,0,0,0,0-4.376s3.573,0,2.779-4.923-4.765,0,0-4.376-3.573,0-4.765-4.923,0,0,0-6.017-3.97,0-4.367,0,3.573-4.376,4.765-3.829-2.779-5.47-5.559-7.658-2.382,0-3.176,3.282l-2.382,2.735v-4.376c0,1.641,2.779,0,2.779,0s-3.176-3.282-3.97-4.376,0-3.282,0-4.376H59.557c-1.985,0,0,0,0-3.282s-1.985,0-2.382,0,0,0,0-3.829-3.573,0-4.765,0L0,261.5Zm39.7-90.8h0Zm0-144.4V38.328a20.834,20.834,0,0,0,0,9.846V34.5a14.935,14.935,0,0,1,0-6.017ZM499.089,15.9Zm30.573,10.393Zm-17.867,0s-.794,2.735,0,2.735Zm-12.706-10.94Zm0,9.846v-.547a15,15,0,0,0,0,4.376V22.466C499.089,21.919,497.1,23.56,499.089,25.2Zm0,0-3.176,2.188ZM559.44,52.55ZM599.145,68.959ZM570.557,68.959ZM551.1,62.942a21.034,21.034,0,0,0,0,4.923V62.942Zm-3.573,0s0-3.282.4-2.735Zm-5.956,2.735s-.4-3.282.4-2.735Zm0,0V59.661c0-1.094-3.176,0-2.382,3.829s3.971-3.282,4.368-1.094Zm-3.573,0,.794-2.735Zm-3.176,0a4.32,4.32,0,0,0,0-3.829,3.191,3.191,0,0,0,1.985,1.641ZM676.569,387.3h1.985S676.172,386.206,676.569,387.3ZM657.908,480.833Zm0,144.4c-.189-4.007-.189-8.027,0-12.033a30.7,30.7,0,0,0,0-10.393V622.5h0ZM198.127,635.628ZM168.348,624.689Zm17.867-2.735a.458.458,0,0,1-.794,0Zm13.1,14.221s-1.191,1.094-.794,0Zm0-10.393v-4.376a22.528,22.528,0,0,1,0,5.47v1.641a3.485,3.485,0,0,0,.4-2.735Zm0,0s1.985-1.641,1.588-1.641Zm-61.542-26.255ZM98.071,583.118ZM126.658,583.118Zm19.058,6.017a21.03,21.03,0,0,1,0-4.923s-2.382,7.111,0,7.111,0-5.47,0-7.658Zm3.97,0s0,2.735-.4,2.188Zm5.956,0s.4-.547-.4-.547Zm0,0V595.7c0,1.094,3.176,0,2.382-3.829s-3.97-.547-4.368-2.735Zm3.573,0-1.985-.547Zm2.779,0v3.829c.294-2.088-.543-4.164-1.985-4.923ZM42.881,178.355Zm-.4,92.986Zm0-101.738s-2.382,3.282,0,3.829a6.721,6.721,0,0,1,0-2.735l1.588-2.735Zm0-17.5h0c0-1.094,1.588-4.376,1.588-1.641ZM42.484,123.657Zm2.382,47.587a5.108,5.108,0,0,0,0-3.829,16.606,16.606,0,0,1,3.176,2.188Zm0,8.2s2.779-2.735,2.779-1.641Zm4.765-13.128v-4.376H46.852Zm0,6.564v-5.47c0-5.47,2.382,1.094,3.97,3.829ZM49.631,182.184ZM54,158.117s2.382-1.641,3.176-1.641Zm0,78.218,2.779-1.641ZM54,123.11s-5.162-13.674-6.75-14.768,0,2.735,0,4.376-1.985,0-2.779,0a17.955,17.955,0,0,0,0,6.564c2.382,0,1.985-4.376,4.368-3.282s6.353,6.564,7.941,5.47ZM54,211.72Zm.4-104.473v-6.017A23.588,23.588,0,0,0,54.4,107.248Zm0,0h0ZM51.616,141.16a5.885,5.885,0,0,1,0,3.829c2.382,0,0-4.376,0-7.111a4.825,4.825,0,0,1-1.588,1.641Zm0,17.5v-3.282c0-3.282-.794,0-.4,1.641Zm0-8.2s.4-1.094,0-1.641ZM51.616,122.016Zm0,7.658s-.794-2.188-.794-1.641Zm0,8.2H49.234c-2.382,0,.4-2.188,1.588-1.641ZM54,128.033s0-2.735-.794-1.641Zm0,8.752v2.735c0,2.735,2.382-2.188.4-4.376ZM54,148.818Zm-2.779-8.2a2.077,2.077,0,0,0-1.985,0s0-1.641.794-1.641ZM51.219,153.194Zm0-48.134a12.741,12.741,0,0,0,0,3.829v-7.111c0-3.282-3.97.547-3.573,1.641Zm0-41.57s-2.382-.547-2.779-1.641Zm0,4.376a39.606,39.606,0,0,1,0,15.315v18.05a3.572,3.572,0,0,0,3.573,0c2.382,0,0-3.829,0-6.017s1.985,0,3.573,0a20.275,20.275,0,0,0,0-4.923c0-2.735,0,0-2.382-3.282S52.807,82.634,54,82.087l3.971,3.829V65.13h0a15.008,15.008,0,0,0,0-4.376v4.923c0,1.094-8.338-1.641-7.941.547ZM53.2,52.55Zm0,0V45.986a64.658,64.658,0,0,1,0,12.58,9.839,9.839,0,0,0-1.191-6.017ZM49.631,29.577s-1.191,1.094-1.191,0ZM84.571,29.577Zm13.9,3.829H92.909a7.335,7.335,0,0,1-5.559,0,15.662,15.662,0,0,0-7.147,0h.4a20.371,20.371,0,0,0-11.514,0,18.931,18.931,0,0,0-11.117,0s4.367-2.735,4.367-.547-2.382,0-2.779,0S54.4,29.03,53.6,29.03H50.028A17.629,17.629,0,0,0,54,33.406a9.561,9.561,0,0,0,3.971,0,62.351,62.351,0,0,0,14.294,0h36.925c1.985,0-7.147-3.282-7.147-6.017v4.923c0,.547-5.162-4.376-4.765-1.094ZM62.337,52.55Zm0-12.034v0Zm0,36.648v0ZM62.337,94.667ZM62.337,469.894Zm0-367.569c-2.779,0-2.382,3.282,0,3.829Zm0-6.017s-3.176-1.641-2.382-1.094Zm0-16.409s0-2.735-2.382-3.282Zm0-5.47a14.384,14.384,0,0,0-2.779-4.376s-1.191,2.188-.4,3.282ZM62.337,40.516Zm0,17.5v6.017a25.5,25.5,0,0,0-4.765-7.111Zm0,0s-3.176-5.47-3.971-2.735ZM62.337,78.258Zm0,7.658v4.376s-4.765-6.017-5.559-7.111Zm0,8.2v2.188s-4.765-3.282-5.956-4.923ZM62.337,498.337ZM68.292,473.176ZM68.292,492.867Zm0,4.376s2.382-.547,2.382,0ZM68.292,497.243Zm0,7.111c-1.985,0-2.779,0-2.779,2.735Zm-2.779,0h0ZM77.027,53.644s3.176-1.094,2.779,1.641Zm0,0a20.3,20.3,0,0,0,2.779-1.094Zm7.544-1.094Zm0,0h0Zm11.117,0s0,2.735,2.382,0ZM95.688,48.721Zm0-6.564v0Zm4.368,0L99.262,43.8ZM102.041,52.55ZM104.424,43.251Zm20.646,9.3h-1.985c-1.191,0,0,3.829-2.382,3.282a3.361,3.361,0,0,0,4.368,0s-1.985-3.282,0-3.282Zm2.779-7.111h2.779C131.423,38.328,119.114,44.345,127.849,45.439Zm0,10.94s.794-1.094-.4,0ZM127.849,51.456ZM127.849,29.577Zm-5.162,0c0,2.735-3.573,0-5.162,0s0,5.47,3.97,6.017,4.765-2.735,1.985-6.564Zm0,0,1.588-1.641ZM120.7,46.533a3.3,3.3,0,0,1-3.573,0Zm0-21.879H99.659a13.4,13.4,0,0,0,7.941,0Zm13.9,22.973a7.22,7.22,0,0,0-3.97-4.376,27.043,27.043,0,0,1,4.765,2.735Zm-3.176,9.846s1.985-4.923.794-1.641ZM108.791,18.09Zm3.971,10.393s1.191-1.641.794-1.641Zm0,27.9h0Zm0-20.238-2.779-7.111a22.525,22.525,0,0,1,0,5.47L107.2,29.577c1.588,3.282,2.382,4.923,5.559,4.923ZM109.188,53.1h0ZM92.115,18.637Zm-33.352,0h0Zm-6.75,0s-.794-3.282,0-3.282ZM44.072,18.637Zm-12.308,8.2s-.4-3.829,0-3.282ZM84.174,4.963Zm22.632,0v0Zm7.147-1.641h0Zm10.323,0h0Zm9.926,0h0Zm11.514,0h-7.941a7.262,7.262,0,0,0,8.735,0Zm0,4.376H93.7c-5.559,0-13.9,2.735-12.309,0H69.086c-.794,0-3.97-3.282-5.956-3.829a51.063,51.063,0,0,0-9.132,0H52.807a55.723,55.723,0,0,0,13.5,0H84.571a38.815,38.815,0,0,1,15.882,0,66.1,66.1,0,0,0,14.691,0H131.82c3.573,0,11.911,2.735,15.088,0Zm1.985,8.2h-5.956a9.608,9.608,0,0,1-5.559,0h5.559s7.941,2.735,5.956,0Zm-3.573,15.315a17.678,17.678,0,0,0-7.544,0,14.445,14.445,0,0,0,7.941,2.735c2.382,0,6.75-3.282,8.735,0s-2.382-2.735-3.573,0S145.319,31.218,144.128,31.218Zm-5.956,23.52s.794-2.188,0-2.188Zm3.574-8.2Zm6.353-3.282s-3.177,3.829,0,3.282S147.7,44.345,148.1,43.251Zm0,3.282h0Zm0,6.564h2.382a2.221,2.221,0,0,0-.794-.547Zm15.882-18.6V31.218c0-3.282-3.176,0-4.765,0s0,3.829,3.573,3.829Zm0-14.768H161.6c-2.382,0,2.779.547,3.97,0Zm-9.926,0s1.588,3.282,1.588,2.735Zm3.573-.547H147.3a47.621,47.621,0,0,0,10.323,0Zm-5.162,0h0ZM148.893,7.7a59.469,59.469,0,0,0,13.9,0h-3.573a23.442,23.442,0,0,0-8.735,0H148.5c-1.985,0-.4,2.188.4,2.188Zm23.426,22.973a5.041,5.041,0,0,0-4.765,0s0,4.376,4.368,3.282Zm0-12.58h-4.765a15.155,15.155,0,0,0,5.956,2.188Zm0,36.648h0s1.191,1.094.4,2.188ZM148.1.04s1.191,3.829.4,3.829Zm25.808,0H170.73s5.559,7.111,3.573,4.376Zm3.176,16.409h0Zm4.367,19.144ZM181.451,48.721Zm0-38.835s-2.382,2.188-1.985,0Zm2.779-4.923c-2.382,3.282-5.559,0-8.338,0a23.1,23.1,0,0,0,5.956,0h2.779q-.2-.006-.4,0Zm-2.779,6.017Zm3.971,25.708h-3.177C179.068,36.688,184.23,37.234,185.421,36.688ZM185.421,49.815Zm0-30.084h0ZM189.392,6.6Zm0,13.127s.794,1.094.4,0ZM189.392,25.748Zm1.985-11.487ZM191.377,36.141Zm3.97-28.99Zm2.779,19.691h0ZM199.715,7.7H197.73C199.715,9.886,200.112,7.7,199.715,7.7Zm0,6.564h4.368s-2.382-1.094-2.779,0Zm0,11.487s1.588-1.094,1.191,0Zm0-19.144h0c0-3.282,2.779,1.094,2.382,0Zm3.573,0Zm3.176,0s2.779,1.641,2.382,1.094Zm3.971,20.785V24.654h-5.956v3.282c0,.547,0,0,2.779,0H214.8c2.382,0-.4,1.094-1.985.547ZM210.435,24.107ZM213.215,24.107Zm0-9.846c7.941,1.641,5.559,0,5.559,0Zm0,3.282h0Zm0,9.846h3.573V23.013c0-1.094,4.368,1.094,4.368,4.376Zm3.97-3.282h0Zm0-6.564h-3.176c-.794,0,9.926,1.094,11.117,0Zm1.985,0h0ZM219.17,29.577ZM219.17,26.842Zm5.956,3.282a3.265,3.265,0,0,0,0,4.923,4.019,4.019,0,0,0,5.023-.79,8.371,8.371,0,0,0,2.124-6.321Zm0-9.846Zm0,10.393a2.64,2.64,0,0,1-1.985,0ZM229.1,15.9Zm3.971,0h0ZM239.817,24.654Zm0-3.829s-.794-1.094.794-1.641Zm0,3.829h0Zm0,4.923Zm0-3.829H236.64c-3.176,0,.4-1.641,1.588-1.641Zm0,4.376a6.272,6.272,0,0,0-1.985,5.47s-.794-5.47-1.191-7.111Zm0-9.3h-2.779c-.794,0-1.588-1.641,0-1.641Zm0,0h0Zm0-8.752s-4.367-3.829-5.161-4.376ZM239.817,17.543Zm0-5.47C237.434,12.074,239.817,14.808,239.817,12.074Zm0,5.47H236.64c0,3.282,11.911,4.376,12.308,0Zm5.559,9.3v0Zm0-5.47Zm0,11.487v4.923a10.037,10.037,0,0,0,0-9.3Zm3.176,0h0Zm0-8.752h2.779c.794,0-.4-3.282-1.985-2.188ZM252.919,29.577Zm4.765-9.846h-3.176C254.11,25.748,260.86,27.389,257.684,19.731Zm0,5.47h3.176s-2.779-1.094-3.574,0ZM257.684,30.671ZM269.2,11.527c-1.985,3.282,0,3.282,0,6.564S271.183,14.808,269.2,11.527ZM271.978,30.671Zm0-13.127s.794-.547.794,0ZM276.742,37.781ZM283.889,20.278ZM296.992,37.781ZM305.33,15.9h0Zm20.249,3.282h-27c0,6.564,3.176,0,4.765,0h15.088S325.579,20.278,325.579,19.184Zm-27,14.221C300.565,27.936,300.565,35.047,298.58,33.406Zm1.985,1.094Zm0,4.376Zm0-6.017s2.779.547,2.779,0Zm0,0h0Zm15.485,5.47ZM320.02,31.765ZM346.622,36.141ZM350.2,36.141Zm2.779,4.923h0Zm4.367,0s1.191-.547,0-1.094Zm8.338-19.691Zm4.367,12.58h0a2.485,2.485,0,0,0,3.574,0Zm9.926,3.282C379.974,33.953,377.2,37.234,379.974,37.234Zm0,0v0ZM396.253,26.842Zm9.132,0c0-2.735-2.382,0-3.97,0h3.97Zm3.573,6.564h-1.985C404.988,33.406,409.753,34.5,408.959,33.406ZM408.959,27.389Zm3.573,3.829H410.15C410.547,31.218,412.532,32.859,412.532,31.218Zm0,39.929h0ZM416.9,44.892Zm0-5.47,2.779-1.641S416.5,36.141,416.9,39.422ZM419.679,52.55ZM419.679,38.328ZM419.679,46.533ZM430.8,29.577H419.679c-2.382,0,0,0,0,3.829V32.312h6.353S431.194,31.765,430.8,29.577Zm-5.559,17.5C419.679,44.345,423.65,52.55,425.238,47.08Zm0,5.47h0Zm0-16.409h-2.779S425.238,36.688,425.238,36.141Zm2.382,10.94ZM427.62,38.328Zm0,0,1.588-1.641Zm0,9.3s3.97-1.094,3.176-1.641Zm0-24.067s4.367-1.094,3.97-1.641Zm0,6.564s5.162-1.641,5.559-1.641Zm8.735,0H430.8a4.181,4.181,0,0,0,4.367,0s7.147-2.735,6.75-2.735Zm3.176,0s4.368-5.47,5.559-3.282ZM447.472,27.389ZM484,17.543Zm9.529,13.674Zm0,0h0Zm0-3.829h3.176c.4,0,0-4.923-2.382-6.017s-3.97,3.829-3.176,6.017Zm0,3.282a14.26,14.26,0,0,0,0-3.829Zm-13.5,0h7.147V27.389H476.06c-1.191,0-.794,2.188.4,2.735ZM473.678,34.5h0c-2.382,0-5.162-.547-3.573-.547Zm-5.559,0h3.97c.794,0,0,0,0-3.282s2.382,0,0,0,2.382,3.829,3.176,4.923,0-4.923,0,0V30.124a23.391,23.391,0,0,0-5.956,0H454.619c-4.765,0,3.97,6.017,3.97,0l.794,1.641h2.779c2.779,0,.794,2.188,2.382,2.188ZM469.707,52.55Zm4.765,0h0Zm9.926,0a5.624,5.624,0,0,0-5.162,0s0,2.735,3.97,0S484.795,52.55,484.4,52.55Zm0,0h0Zm0,3.829,2.382-3.829Zm5.162-3.829h0C489.559,48.721,490.354,52.55,489.559,52.55Zm3.573,0Zm5.956,0ZM499.089,52.55ZM502.662,52.55Zm-3.573,6.017h-3.97s7.544,3.282,7.941,0S499.089,58.567,499.089,58.567Zm-8.735,5.47H474.472a114.418,114.418,0,0,0,19.058,2.735,22.336,22.336,0,0,0,10.323,0V63.489c-2.382-1.094-8.338,1.094-13.5.547Zm17.47-4.376h0ZM507.824,63.489ZM507.824,63.489Zm3.97-8.2a9.733,9.733,0,0,0,0-3.282Zm2.779,0v3.282q.076-1.913,0-3.829Zm0,7.658h-6.353c0,3.829,0,3.829,2.779,4.376a5,5,0,0,0,3.97,0v.547h2.382Zm9.132,3.282Zm10.323-18.6Zm0,9.846c0-3.282-5.559-2.735-8.338-2.735h-5.559c.794,0,11.911,7.111,14.294,2.735ZM525.691,67.865Zm0,0h2.779c2.779,0,0,0,0-3.282H524.1Zm98.071,64.543Zm0-9.3v0ZM73.057,519.122v-5.47a25.56,25.56,0,0,0,0,5.47Zm0,9.3v0Zm550.7-444.693v2.735S624.556,84.822,623.761,83.728ZM623.761,595.152Zm0,13.127h-3.176c0,4.376,3.176,3.829,5.559,3.829ZM626.541,152.1Zm0,0s-.794,1.641-.4,2.188Zm0-8.752a2.922,2.922,0,0,0,2.779-2.735Zm2.779,0h0ZM629.32,175.62ZM629.32,156.476Zm0-21.332c0-3.829,0-9.846-1.985-12.58s0,7.111,0,6.564c.2,4.007.2,8.027,0,12.033h0a3.575,3.575,0,0,0,1.588-3.829Zm0,14.221ZM629.32,180.543ZM629.32,595.152ZM629.32,137.331Zm0,7.111s7.147,2.188,5.162,2.188ZM629.32,148.818Zm0,10.94s6.75,2.188,5.162,2.188Zm0,13.674s6.353,2.188,5.559,2.188Zm4.765,391.636v-3.829a28.688,28.688,0,0,1,5.559,6.017Zm0-7.658v-4.923s5.162,6.017,6.75,7.111ZM634.085,572.726ZM634.085,609.92Zm0-17.5v-6.564a29.834,29.834,0,0,0,5.559,8.752Zm0,0s3.97,7.111,4.765,3.829Zm0-15.862a5.784,5.784,0,0,0-2.779-4.376ZM631.305,554.128Zm0-8.2v0Zm0,6.017s6.353,4.923,5.956,3.829Zm0,16.956,2.382,3.282Zm0,39.382ZM631.305,596.246Zm0-25.161,4.765,3.829ZM631.305,178.9Zm5.559,66.731Zm0,250.516s.794.547-.4,0ZM637.658,216.643Zm0,311.777v5.47a24.057,24.057,0,0,0,0,4.923c0,2.735,0,8.752,2.779,4.376s-3.97-8.752-2.779-12.58l1.985,4.376c0-3.829-2.779-5.47-1.985-8.2s-1.985,3.282-1.588,3.829ZM646,544.83v-4.376c0-1.094,2.382,0,3.176,0a17.949,17.949,0,0,0,0-6.564c-1.985,0-2.382,3.282-3.573,3.829s-2.779-4.923-4.765-6.017,0,0,0,4.376A41.838,41.838,0,0,0,646,544.83Zm-3.573,3.282v3.282a16.5,16.5,0,0,0,0-6.564Zm0,0s2.382-3.282,1.985-3.282Zm3.97-33.366h1.985c1.985,0,.794-1.641,0-2.188ZM646.393,501.619Zm-3.573-12.58v1.094H645.6Zm0-7.111v6.017c0,2.735,1.985-5.47.4-8.2ZM642.82,473.176Zm0,45.4v-3.282c0-3.282-1.985-1.094-.4,1.094ZM642.82,526.78Zm2.382-20.238s-1.191-2.735-.794-2.188Zm2.382,7.111a15.015,15.015,0,0,1,0-3.829c-2.779,0-1.985,4.923,0,7.111a10.1,10.1,0,0,0-.794-5.47Zm0-17.5v3.829c0,3.829-1.191-4.376-1.588-6.017Zm0,8.752s-2.382-2.735-1.985-2.188ZM647.584,524.592Zm0-7.111h2.779c2.779,0-2.779-1.641-4.367-2.188ZM647.584,532.8Zm-5.956-36.1s-.794-2.188-1.588-2.188Zm0-77.671-1.191-2.188ZM641.629,443.639Zm0-124.164s-2.382-2.188-3.176-2.188Zm0-129.634v5.47c0,1.094-1.588-7.658-1.985-7.658ZM641.629,186.012Zm0,9.846v4.376c1.316-.755,1.938-2.837,1.39-4.649s-2.059-2.67-3.375-1.914Zm0-61.261v-7.658a57.214,57.214,0,0,0,0,8.2s-1.985-2.188-1.985-2.735Zm0,10.94s-2.382-3.282-1.985-2.188ZM641.629,145.536ZM641.629,135.691Zm0,12.034h0a3.8,3.8,0,0,0-1.985-1.094Zm0,27.349V170.7a24.8,24.8,0,0,0,0,5.47s-1.588-1.641-1.985-2.188Zm0,236.841V415.2c0,3.282-.4-4.923-1.588-4.376Zm2.779,9.3s-2.382-.547-1.588-1.094Zm5.956,14.221V421.76c-3.97,0,0,3.282-3.176,4.376s-1.985,0-2.382,3.829,1.588,5.47,1.985,5.47v2.735s0,4.923,3.176,3.282A26.9,26.9,0,0,1,650.364,435.434ZM648.378,322.21ZM648.378,322.21Zm0,8.2h1.985l-2.779-4.376Zm0,5.47v0Zm0,85.875s-.4-4.923,0-3.282ZM648.378,333.7Zm-3.97-7.658,2.382,3.282h0v-6.564Zm0-37.741s.794-1.094.4-1.094Zm0,0a19.834,19.834,0,0,1,1.191-2.735ZM644.408,298.143Zm4.367-44.305h-2.382s1.588-3.282,1.985-2.735Zm0,22.973,2.779-5.47v-6.564h1.985l-2.382,3.829ZM652.746,271.341Zm0-92.986s-2.779-3.282,0-3.829a2.289,2.289,0,0,0-3.971,0v8.752c0,1.641,1.985,0,2.779,0s0,2.735,0,3.282,1.191-8.2.4-7.658Zm-3.971-34.46c0-2.735,0-3.829,2.382-5.47h-3.176v8.752s-.794-.547,0-2.735ZM648.775,132.956Zm3.573,109.4V240.71c0-.547,0,.547-.4,1.094Zm0-54.7h-2.382a1.653,1.653,0,0,0-1.852.73,3.466,3.466,0,0,0-.53,2.551c0,3.829,3.573,0,4.367,0s.794-2.188.794-2.735ZM652.349,227.583ZM652.349,247.274Zm-2.779-30.631a21.72,21.72,0,0,0,0-7.111h0Zm-3.176,0,2.382-3.282Zm3.97,3.282v0Zm0,36.1c3.97-2.735.794-1.641,1.588,0Zm0,0c-2.779,0,0,2.735,0,0a4.386,4.386,0,0,1,1.588,2.735ZM650.364,250.009ZM645.2,228.13v3.282c0,3.282,2.382,0,3.176-3.829s-1.191,4.376-2.382,3.282ZM645.2,224.3Zm-3.573-33.366s3.573,2.735,2.382,2.735Zm0,6.564v4.923c0,1.094,2.779-.547,2.779-2.188ZM641.629,231.411Zm0,10.393s3.573,1.094,2.382,2.735Zm2.779-7.658s5.162,0,0-3.282,2.779,5.47,2.382,6.017ZM647.187,239.069ZM644.408,250.556ZM644.408,271.888ZM644.408,257.666Zm0-4.376h0ZM643.614,161.945ZM643.614,161.945Zm0,0s-.4-6.564.4-5.47Zm0-7.658s0-4.923.794-5.47ZM643.614,154.288ZM643.614,148.818ZM643.614,134.6Zm0,122.523s.4-6.017-.4-7.111Zm0,11.487s1.191-7.658,0-7.111Zm-.4,166.828Zm0-21.879h0c-1.985-3.829.794-2.188.794-2.188Zm0-67.825a1.626,1.626,0,0,0,2.779,0l-1.191-2.188ZM645.6,314.552Zm3.573,133.462c0-2.735-1.985,0-1.985,0S649.967,449.109,649.173,448.015ZM647.187,451.843Zm0,0h-5.162s5.559,2.735,4.765,2.188Zm-6.353-71.107h1.191a4.159,4.159,0,0,0,0-4.923Zm3.573-294.274s0,7.111-2.779,0,0,2.735,0,3.282v3.282c4.368,2.735,2.779-3.829,2.779-6.564ZM644.408,97.949Zm0,0v3.829c0,.547.4,0,0-1.641Zm0,7.111a11.849,11.849,0,0,0,0,6.564V123.11c0-1.641.4-12.034.4-15.862ZM644.408,159.757Zm0,65.09c0-7.111,4.765,0,5.162,0s0-10.393-3.573-7.658-.794,7.658-1.191,10.393Zm0-16.409v2.735c0,2.735,2.779,1.641,1.588,0Zm0-18.6v17.5a5.885,5.885,0,0,0,0-3.829c2.779,0,3.176,4.376,4.367,0,.2-4.554.2-9.12,0-13.674a5.126,5.126,0,0,1-1.985,2.735Zm7.544-60.168v-3.829l-4.765,2.735v3.282h4.765A6.741,6.741,0,0,0,651.952,129.674Zm0,31.178V152.1c-.2-4.372-.2-8.756,0-13.127-2.779,0-3.176,5.47-4.367,8.2s0,0,0,5.47v8.2h0v4.376c0,1.641,2.382,4.376,4.367,3.282s0,0,0-3.829,3.176-2.735,1.588-2.735Zm0,109.4v4.376s3.573-3.282,3.176-3.282Zm5.956-90.8c-1.985,0,0,5.47,0,7.658Zm3.176-43.758s.4,1.094-.4,0ZM661.084,151.006Zm0,4.376s.794.547.4,0Zm0,13.674a4.377,4.377,0,0,0,0-3.282,3.33,3.33,0,0,0-.794,3.282Zm0-10.393s-.794,3.282,0,3.282S661.878,161.945,661.084,158.664Zm0,13.674a5.957,5.957,0,0,0,0,2.735c-.4,6.017.4,0,.4-2.735ZM661.084,180.543Zm0,102.832Zm0-74.389V196.4a57.2,57.2,0,0,1,0,8.2s-3.176,7.111-.4,4.376Zm0,10.94c-3.176-3.282.794-3.282-3.176-9.3a57.984,57.984,0,0,0,0,6.017c0,5.47,0,0,2.382,3.282Zm-3.176,11.487v0ZM657.908,237.975Zm0,2.735h1.985C661.878,240.71,657.908,239.616,657.908,240.71Zm0-14.768Zm0,54.7a6.009,6.009,0,0,0,0,1.094ZM657.908,247.821Zm0-42.664a58.639,58.639,0,0,0,0-12.033c0-3.829,0-4.923-1.985-6.017q-.3,7.926,0,15.862s0,8.752,1.985,3.282ZM657.908,216.643Zm0,0h0Zm0,84.782V278.452c0-7.658,0,10.94-1.985,13.674a75.289,75.289,0,0,1,0,9.3Zm-1.985-22.973V275.17c0-3.282,0,0-1.985,3.829h-4.765s7.544,0,6.75,3.282-1.985,0-2.779,0H658.3c0,3.282-5.162-2.735-4.765-3.829Zm0,19.691h.4a2.457,2.457,0,0,1-4.765,0Zm0,0s-3.97-.547-4.367-2.735Zm0-4.923h-3.573c-1.191,0-1.191,1.094-1.985-2.735Zm-3.573,3.829s-5.162-2.735-5.559-2.735ZM652.349,297.049ZM658.3,297.049Zm0,19.144v-7.111h-7.941a20.551,20.551,0,0,1,3.97,4.923,28.177,28.177,0,0,0-2.779-3.282Zm2.779,42.664v-3.282c0-3.282-7.941-2.735-6.75-2.188Zm0-14.221s0,3.829,3.176,3.282-10.72-8.752-11.514-8.752ZM661.084,359.951ZM657.908,350.106Zm0,5.47h0ZM657.908,347.371Zm3.573,33.366h3.573a17.355,17.355,0,0,0-2.779-4.923h-4.367a22.546,22.546,0,0,1,0,4.923Zm-3.573,9.3Zm0-9.846v-7.111c0-.547-5.559,7.658-2.779,7.658ZM657.908,380.189ZM657.908,472.629Zm-2.382,9.3s2.382,0,0-3.282Zm0,17.5a11.941,11.941,0,0,0,0-4.923,25.556,25.556,0,0,0,0,5.47s-2.382,3.829-2.779.547Zm0,28.443Zm0-61.809h-3.573v-7.111c0-2.188,0-16.409-2.382-9.3s-5.956,0-6.353,5.47,0,3.282,0,4.376h3.176v-3.829c0-3.829,3.176,0,5.956,3.282s-3.971,9.3-2.382,8.2ZM653.54,472.629Zm0,7.658v4.376c0,4.376-2.382-1.094-4.367-3.282Zm0,66.731v0Zm0,41.57s-5.162-.547-4.765,1.094Zm0-4.923V555.222a20.273,20.273,0,0,0,0-4.923h-3.573c-2.779,0,0,4.376,0,6.564s-2.382,0-3.97,0a16.51,16.51,0,0,0,0,4.376c0,3.282,0,0,2.382,3.829s3.176,3.829,1.985,4.376L646,565.615v21.332a11.207,11.207,0,0,0,0,4.376v-5.47c0-1.641,1.588,1.094,1.191-1.094Zm-3.176,13.674-6.353,2.188Zm0,0s0,4.376,1.985,6.564a42.844,42.844,0,0,1-1.985-12.581c-1.622-.614-3.356.11-4.458,1.861a7.862,7.862,0,0,0-.7,6.344ZM653.937,619.766ZM619,619.766Zm-13.9-4.376h5.162a9.324,9.324,0,0,1,5.559,0,10.807,10.807,0,0,0,7.147,0h-6.75a20.372,20.372,0,0,0,11.514,0,25.793,25.793,0,0,0,11.117,0s-4.367,0-5.162-3.829,2.382,0,2.779,0,5.162,3.829,5.956,3.829h5.162l-3.97-4.376H597.556a25.461,25.461,0,0,0-9.132,0c2.382,0,5.956,3.829,7.544,6.564s0-4.376,0-4.923,3.97,10.392,3.97,7.111ZM618.2,596.246ZM618.2,596.246ZM613.438,596.246ZM611.056,596.246Zm-9.529,3.282h0ZM601.527,603.356Zm0,6.564Zm-4.765,0a3.993,3.993,0,0,1,.794-2.735ZM594.777,599.528ZM592.395,607.732Zm-20.249-8.2h3.971c1.191,0,0-3.829,0-3.829a5,5,0,0,0-3.971,0S574.131,599.528,572.145,599.528Zm-2.779,7.111h-2.779c-2.779,0,11.911,0,2.779-1.094Zm0-10.393a.616.616,0,0,1,0-1.094ZM569.366,601.169ZM569.366,623.048Zm4.765,0c0-2.735,3.573,0,5.559,0s0-4.923-3.971-5.47-5.162,1.094-2.382,4.923Zm0,0s-1.191,0-1.191.547Zm1.985-16.956,3.573-3.282Zm0,21.879H550.308c0,3.282,10.72,0,13.1,2.735h19.852c3.176,0,11.514,2.735,13.5,0a14.553,14.553,0,0,0-8.338,0,92.992,92.992,0,0,0-12.706-2.188Zm-13.9-23.52s2.382,3.829,3.97,4.923-3.176-3.282-4.367-4.376ZM565.4,594.6s-1.588,4.923-.4.547ZM588.027,634.534Zm-3.97-10.94-.4.547Zm0-27.349h0Zm0,19.691a39.535,39.535,0,0,0,2.779,7.658v-5.47l2.779,4.923c-1.191-4.376-1.985-6.017-5.559-6.564ZM588.027,599.528ZM604.7,633.987Zm33.352,0a2.685,2.685,0,0,0-2.779,0h2.779Zm7.147,0s.794,1.641,0,1.641ZM652.746,633.987Zm12.308-7.658s.794,2.188,0,1.641ZM612.644,644.927Zm-22.235,0s-.4,1.641,0,2.188Zm-7.147,0a2.23,2.23,0,0,0-3.573,0Zm-10.72,0H578.9a6.009,6.009,0,0,0-6.75,0Zm-9.926,0h4.368a3.4,3.4,0,0,0-4.765,0Zm-11.117,0h7.941a6.722,6.722,0,0,0-8.735,0Zm0-4.376h52.013c5.559,0,13.5-2.735,11.911,0a6.77,6.77,0,0,0,5.559,0h7.147c.794,0,3.573,3.282,5.956,3.829a53.391,53.391,0,0,0,9.132,0h9.529a51.639,51.639,0,0,1,9.529,0H660.29a69.559,69.559,0,0,1-15.088,0,55.72,55.72,0,0,0-13.5,0H613.438a77.06,77.06,0,0,1-15.882,0,37.085,37.085,0,0,0-15.485,0H550.308Zm0-8.2a4.18,4.18,0,0,0,4.367,0h11.514a31.451,31.451,0,0,0,7.147,0h12.308a15.95,15.95,0,0,0-7.147,0h-24.22s-8.338.547-5.956,2.735Zm3.176-14.768h7.941a11.7,11.7,0,0,0-7.941-3.282c-2.382,0-6.75,3.829-8.735,0s1.985,3.282,3.176,2.735Zm5.956-24.067s-2.382,6.017-1.985,2.735ZM558.249,602.262Zm-7.544,3.282s3.573-4.376,0-3.282-1.191,4.376-1.985,6.017Zm0-3.282s-1.985,3.282-2.779,2.735Zm0-6.564s-3.97,3.829-3.573,3.829Zm-14.294,18.6v3.282c0,3.282,3.573,0,5.162,0h2.382c2.382,0,0-3.829-3.573-3.829Zm0,14.768h2.382l-7.147,2.735Zm9.529-2.735s-4.367,1.641-4.765,2.735Zm-1.985,2.735h9.926a39.386,39.386,0,0,0-15.088,2.735Zm5.559,0h0ZM552.69,641.1h-13.5a34.4,34.4,0,0,0-11.117,0c0,3.282,12.308,2.735,14.294,2.735a46.734,46.734,0,0,0,8.735,0h1.985s-4.368-2.188-5.162-2.188Zm-23.029-23.52a3.4,3.4,0,0,0,4.765,0s0-3.829-4.368-3.282Zm0,13.128s7.544,2.735,5.162,0Zm0-36.648h2.382s-8.735,1.641-7.941.547Zm24.617,54.7s-6.353-1.094-5.559-1.094Zm-25.808,0h2.779s-10.323-4.376-8.338-1.641Zm-3.176-16.409h0Zm-2.382-14.768s-5.162-2.188-5.559-1.641ZM522.911,604.45Zm0,38.288s-4.765-3.829-5.162-1.641Zm-4.765,5.47c2.382-3.282,5.559,0,8.338,0a11.906,11.906,0,0,0-5.956,0H517.75c-.4,0-4.765-1.641-4.765-1.641ZM520.926,642.192Zm-3.97-25.708h3.176c3.176,0-7.147-2.188-8.338-1.641ZM516.956,603.356Zm0,30.084h0Zm-4.368,12.58h0l-4.765-1.641Zm0-12.58s-5.559-2.735-5.162-1.641ZM512.588,626.877Zm-2.382,12.033s-4.368-.547-4.368-1.641Zm0-22.426s-3.97-1.094-3.176-1.641Zm-4.368,29.537Zm-6.75-21.879h0Zm-2.779,19.144h2.779c-1.985-1.641-1.985,0-1.985,0Zm0-6.564h-5.162s4.368,1.641,4.765,0Zm0-11.487Zm0,19.144v-2.735c0,.547-1.588,2.188-1.191,2.735Zm-3.573,0Zm-3.573,0-1.191-1.094Zm-3.573-20.238v2.735h5.559v-2.735h-2.382a32.042,32.042,0,0,0-7.544,0c-1.588.547,1.588-1.641,3.176-1.094ZM485.589,626.877ZM482.81,626.877Zm0,10.393c-7.544-1.641-4.765,0-4.765,0Zm0-3.282s-6.353-.547-5.559,0Zm0-9.846h-3.573v3.829c0,3.829-3.176-.547-2.382-3.829ZM479.236,627.424Zm0,6.017a2.445,2.445,0,0,0,3.176,0s-9.529-.547-10.323,0Zm-1.985,2.735h0ZM477.251,623.595Zm0,3.282h0Zm-5.559-3.829s1.985-3.282,0-4.376-7.544,3.282-6.75,4.376Zm0,10.393h0Zm0-10.393h0ZM471.692,635.628Zm-3.573,0h0ZM460.972,626.877Zm0,3.829-4.367,1.641ZM460.972,626.877Zm0-4.923Zm0,3.829h3.176c3.176,0-4.765,1.641-4.765,1.641Zm0-4.376c1.563-.931,2.522-3.131,2.382-5.47,0,0-3.97,5.47-3.97,7.111Zm0,8.752h3.176c.794,0-4.765,1.641-4.765,1.641ZM460.972,633.44Zm0,8.752a8.3,8.3,0,0,0,1.588,1.641Zm0-5.47h0Zm-2.382,5.47C461.369,642.192,458.59,639.457,458.59,642.192Zm0-5.47h.794c0-3.282-11.514-4.376-11.911,0Zm-5.162-9.3-1.588,1.641Zm0,4.923Zm0-11.487a5.837,5.837,0,0,0,0-4.376s-2.382,4.923-1.588,6.017Zm-3.176,0a3.135,3.135,0,0,0-1.588-.547Zm0,9.3H447.87c-.4,0-1.985.547-.4-.547ZM446.281,624.142Zm-3.97,8.2h3.176c-.4,0-7.544-8.2-5.956-.547Zm0-6.017h-2.779s-.794.547.4-.547Zm0-4.923ZM431.193,640v-6.017c0-3.282-5.559,2.735-3.176,5.47ZM428.414,620.86Zm0,13.674v0ZM419.679,613.749ZM413.326,631.252ZM400.224,613.2Zm-8.338,22.426h0Zm-20.249-3.282h21.838a10.72,10.72,0,0,0-4.368,0h-4.367S371.239,630.705,371.636,632.346Zm27-14.768Zm-2.779,0s-.4,0,0-.547Zm-1.985-4.923s-.4-1.094,0-.547ZM393.871,618.672Zm0,0h0Zm-13.9-6.017ZM376,619.219ZM349,614.843ZM345.431,614.843Zm-2.382-4.923h0Zm-4.765,0s0,.547,1.985,1.094Zm-7.941,19.144c.4-2.735.4,1.641,1.191,1.094Zm-4.765-13.127h0a2.18,2.18,0,0,0-3.176,0Zm-8.735-2.735c0,3.282,2.382,0,0,0s1.191.547,1.191,1.094Zm0,0a7.372,7.372,0,0,0-.4,2.188ZM301.359,622.5Zm-9.132,0h-2.779c-1.588,0,1.985,1.094,2.382,2.188Zm-3.573-6.564s-1.191.547-.4,2.188ZM288.653,621.954Zm-1.985-3.829s2.382,0,1.985-2.735a2.2,2.2,0,0,0-3.772-.273,4.709,4.709,0,0,0-.2,5.2Zm0-39.93s-4.368,2.188-3.97,2.188ZM284.286,603.9Zm0,6.017h-2.779s-.794,4.923-1.588,2.188Zm-4.368-13.128h0ZM279.918,611.014ZM279.918,602.263ZM269.2,619.219h13.1V615.39c0-3.829-3.176,0-4.368,0h-4.367s-7.544,3.829-7.544,6.017Zm5.956-16.956c1.985,4.923-1.588-2.735-3.176,2.188ZM275.154,596.246Zm0,16.409h0Zm-2.382-10.939s-4.367,1.641-3.573,2.188ZM272.771,610.467Zm0,0h0c2.382,0-4.765,4.376-4.765,4.376ZM272.771,600.622ZM272.771,624.689Zm0-6.564-8.735,4.376Zm-8.735,0h0Zm-3.573,0V615.39c0-2.735-7.147,11.487-8.735,9.3ZM258.081,618.125ZM221.949,627.971ZM212.42,614.3s-8.338,6.017-8.735,6.017Zm0,0-7.544,6.017Zm0,3.282h-3.176s0,4.923,1.985,5.47-4.367,3.282-5.559.547Zm0,0a5.155,5.155,0,0,0,0,3.282Zm13.5,0H215.6a7.454,7.454,0,0,0,0,3.282H225.92c1.191,0-4.764,1.094-4.764.547Zm5.956-4.376h0c2.382,0-3.176,4.376-5.162,3.829Zm5.956,0h-4.368c-.794,0,0,0,0,2.735s-2.382,0,0,0-2.779-3.282-3.573-4.923,0,5.47,0,0v6.017h13.9c5.162,0-4.368-6.017-4.368-2.735s0,0-2.779,0-2.779,3.282-3.97,2.735ZM232.67,597.887Zm-4.765,0h1.985a1.834,1.834,0,0,0-2.382,0Zm-9.926,0a8.454,8.454,0,0,0,5.162,0,2.533,2.533,0,0,0-3.97,0s-7.147,1.641-6.353,1.641Zm0,0h0Zm0-4.376-7.544,6.017Zm-3.176,0h0c0,3.829-8.338,6.017-7.544,6.017Zm-3.176,0s-8.735,6.017-7.544,6.017Zm-5.162,0h2.779a118.878,118.878,0,0,1-10.323,6.017Zm0,0-9.529,6.017Zm-2.382,0-9.529,6.017Zm3.573-6.017h-3.97c-.4,0-7.147,5.47-5.559,5.47Zm8.735-6.017h15.882a115.714,115.714,0,0,0-19.058-3.282c-2.382,0-7.941-2.735-10.323,0s0,0-1.985,0,0,0,0,3.282.794,5.47,5.956,5.47Zm-17.47,4.923h.4c-.4,0-10.72,5.47-9.926,5.47ZM198.921,582.571ZM198.921,582.571Zm-3.97,8.2v0Zm-2.779,0a9.738,9.738,0,0,1,0-3.282,10.5,10.5,0,0,0,0,3.282Zm0-7.658h5.956c0-3.829,0-3.282-2.382-4.376s-3.176,0-4.367,0,0,3.282,0,0v-3.829s0,3.829-1.985,3.829,0-3.282,0-3.282h-2.382Zm-9.132-3.829Zm-9.529,20.785s-11.117,3.282-10.323,3.829Zm0-9.846h7.941c0-3.282-3.97,0-4.367,0s-11.911-.547-14.691,3.829ZM182.245,579.29Zm0,0h-2.779c-2.779,0,0,0,0,3.282h3.97l-13.9,1.094ZM86.159,563.427v-2.735s-13.5,6.017-12.706,7.111ZM86.159,52,71.866,56.379Zm0-13.127h3.176c0-3.829-3.176-3.829-5.559-3.282.17,3.726-1.294,7.231-3.718,8.9s-5.338,1.18-7.4-1.243Zm-4.367,470.4v-1.094h0c3.573,0-14.294,3.282-13.5,5.47Zm0-13.674ZM81.792,464.424Zm0-414.609S64.719,52.55,65.116,52.55ZM62.337,512.011Zm0-7.111v0Zm0-14.768Zm0-14.221v0ZM62.337,405.9Zm0-249.969s-2.779-1.094-1.985-.547Zm0,276.771-2.779-.547Zm0-311.23V111.076c0-3.282,0-9.3-2.779-4.376,0,3.829,3.971,8.2,2.779,12.034a5.122,5.122,0,0,1-1.985-3.829c0,3.282,2.779,4.923,1.985,7.658ZM59.557,334.243s-1.588-.547-1.191-.547Zm0,129.634v-4.923c0-.547-2.779,4.376-1.985,4.376ZM59.557,467.706Zm0-9.846v-3.829c0-.547-2.779,2.188-1.985,3.282Zm0,61.262v7.658a23.975,23.975,0,0,0,0-7.658s-1.985-1.094-2.382-.547Zm0-10.393s-1.588,0-1.985-.547ZM59.557,508.729ZM59.557,519.122ZM59.557,506.541Zm0-26.8V477c0-1.641-2.382-.547-2.382.547Zm0-237.388v-3.282c0-3.282-3.971,2.188-2.779,1.094ZM57.175,233.6s-1.985-3.282-2.779-2.188ZM46.852,216.643v13.127c3.971,0,0-3.282,3.176-4.923s1.985,0,1.985-3.829,0,0-1.985-3.829v-2.735s0-4.923-3.176-3.282a27.067,27.067,0,0,1,0,5.47Zm0,113.224h0ZM46.852,329.868Zm0-8.2s2.779,4.376,2.382,4.376Zm0-5.47s1.985,2.188,1.588,2.188Zm0-85.329s1.985,3.829,1.985,2.188ZM46.852,318.928Zm5.559,7.111a1.833,1.833,0,0,1,2.382,0c0-4.376,0,0-2.779-3.829-2.779,0,0,3.829,0,6.564Zm0,37.741s-.4.547-.4,0Zm0,0a4.507,4.507,0,0,0-.794,1.641Zm0-9.3h0Zm-4.765,44.305h1.985c-.4,0-.4,2.188-1.191,1.641Zm0-23.52H45.263v8.2c0,2.735,0,3.829,1.985,3.282s-2.382,0-1.985,0,0,0,2.382-3.282Zm-3.971,0,.4,5.47Zm0,92.986s2.382,3.282,0,4.376a2.589,2.589,0,0,0,4.368,0v-8.752c0-1.641-1.985,0-3.176,0s-.4,9.3.4,8.2Zm3.971,35.007s0,3.829-2.779,4.923h3.176v-4.376a3.3,3.3,0,0,1,1.191,3.282ZM47.646,513.652Zm-3.573-109.4v-3.282c0-3.282-2.382,4.923,0,5.47s.794,3.282,1.191,2.735Zm0,54.7h2.382a2.174,2.174,0,0,0,1.842-1.146,4.2,4.2,0,0,0,.54-2.683c0-3.282-3.573,0-4.765,0ZM44.072,418.478ZM44.072,399.334Zm3.573,36.1a24.733,24.733,0,0,0,0,7.658h0Zm3.176,0v-3.282c0-3.282-1.985,0-2.382,3.282Zm-3.97-3.282v3.282s.4-3.282,0-3.829ZM44.866,395.5c-1.985,2.735.794,1.641,0-.547Zm0,0ZM44.866,401.522Zm5.162,22.426v-3.829c0-3.829-2.779,0-3.176,4.376s3.176-4.923,4.368-3.829ZM50.028,427.777ZM53.6,460.6s-1.588-3.282-.4-3.282Zm0-6.017v-4.923a16.675,16.675,0,0,0-.794,1.641ZM53.6,420.666Zm0-10.393H51.616a4.321,4.321,0,0,1,1.588-3.282Zm-2.779,7.658c-1.985,0-5.161,0,0,3.282s-1.191-6.017-.4-6.564ZM48.043,412.461Zm2.382-11.486s-.4-2.735-.4-3.282Zm0-20.785a3.331,3.331,0,0,0-.794-3.282ZM50.425,393.864Zm0,4.923h0ZM50.425,495.055ZM50.425,495.055Zm0,0s3.573,1.094,2.779,0ZM50.425,502.713ZM50.425,502.713Zm0,5.47s2.382,1.094,2.382,1.641ZM50.425,522.4Zm0-123.07s2.779,1.094,3.176,1.641Zm0-10.94s1.588,1.641,3.176,1.641Zm0-171.751v-2.735c0-2.735,2.382,2.735,3.573,2.735Zm0,21.879s-1.985-3.829-1.985,0,4.765,1.094,4.765,1.641Zm0,67.825a1.626,1.626,0,0,0-2.779,0,3.478,3.478,0,0,0,2.024,2.8,2.35,2.35,0,0,0,2.741-1.154ZM48.043,336.978Zm-2.382-135.65c1.985,3.282,2.382,0,2.382,0a1.373,1.373,0,0,0-.4,1.641ZM47.646,198.046Zm0,0a5.624,5.624,0,0,1,5.162,0s-3.573-1.094-2.779-.547Zm8.735,73.295v-4.376a5.715,5.715,0,0,0,0,5.47ZM52.807,563.974s0-7.658,2.382-3.282,0,0,0-2.735v-2.188c-3.97-.547-2.382,6.017-2.382,9.3ZM52.807,552.487Zm0,0h1.985v-3.282a1.554,1.554,0,0,0-1.529.395,2.952,2.952,0,0,0-.853,1.793Zm0-7.111a11.847,11.847,0,0,0,0-6.564v-10.94c0,1.641-.4,12.581-.4,16.956ZM52.807,490.679Zm0-65.09c0,7.111-4.368,0-4.765,0s0,9.846,3.573,7.658.4-6.564.4-9.3Zm0,15.862v-2.735s-2.779,0-1.588,1.094Zm0,18.6a75.312,75.312,0,0,1,0-9.3v-7.658a4.321,4.321,0,0,0,0,3.829c-2.779,0-3.176-4.923-4.367,0a75.212,75.212,0,0,0,0,13.674,5.229,5.229,0,0,1,1.985-2.188Zm-5.162,62.9v4.376s4.765-3.282,5.162-2.735,0,0-2.779,0H46.455s-2.382-3.829-1.191-3.282Zm-4.368-32.819c2.382,0,0,0,0,4.376a14.26,14.26,0,0,0,0,3.829c.206,4.371.206,8.756,0,13.127,2.779,0,2.779-5.47,4.368-7.658a11.151,11.151,0,0,0,0-5.47,64.744,64.744,0,0,0,0-8.752v-7.111s-2.382-4.376-4.765-3.282,0,0,0,3.282S42.087,490.132,43.278,490.132Zm0-109.4v-4.376a15.093,15.093,0,0,0-1.191,4.376ZM40.9,472.629c1.985,0,0-5.47,0-7.111s-3.176,4.923-1.191,6.017ZM37.72,516.934s-1.985-2.188-1.191-1.094Zm0-15.315s-1.985-1.094-1.588-1.094Zm0-4.376s-2.382-2.188-1.985-1.094Zm0-13.674a6.657,6.657,0,0,0,0,3.829,3.3,3.3,0,0,0,.79-2.825,2.435,2.435,0,0,0-1.584-2.1Zm0,9.846v-4.376c0-1.094-2.382,1.094-1.588,1.094Zm0-13.674s-1.985-3.829-1.985-1.094ZM37.72,472.082Zm0-102.832h0c2.382,0-1.191-1.094-1.588-1.094Zm0,74.389v3.282s.794-7.111-1.191-4.376Zm0-11.487c1.985,0,0,6.564,0,9.3a43.632,43.632,0,0,0,0-7.658c.4-4.923.4,1.641-.794-2.735ZM40.1,421.213s-1.985,3.829,0,4.923-.4-6.017-.794-6.017Zm0-7.111-.4-1.094Zm0,0H38.117c-1.985,0,2.382-2.188,1.985-3.282Zm0,14.768s-.794-.547-1.191-3.282Zm0-54.7a38.32,38.32,0,0,0-1.588-4.376ZM40.1,406.991Zm0,42.664a58.643,58.643,0,0,0,0,12.033v6.017q.3-7.926,0-15.862c1.588-7.111.794-12.58.4-6.564Zm0-8.752v0Zm0,0s1.588-5.47,1.191-5.47Zm0-84.235v9.3a82.124,82.124,0,0,0,0-9.845ZM42.087,379.1v2.735a3.456,3.456,0,0,1,2.382-3.282,8.712,8.712,0,0,1,4.368,0s-7.544,0-6.353-3.282,1.985,0,2.779,0H40.1V378h0s3.97-6.564,3.573-5.47Zm0-19.144h-.4c-.794,0,3.971-7.658,3.971-6.564Zm0,0s3.176-6.017,3.573-3.829Zm0,4.376h3.97c1.588,0,0-7.658.4-3.829Zm3.573-3.282s4.368-4.376,4.368-3.829ZM45.661,361.045ZM39.308,361.045Zm0-19.144v7.111c0,.547,5.559,0,8.338,0a17.633,17.633,0,0,1-3.971-4.376s.794-4.923,1.985-3.829Zm0-139.479h1.985a26.537,26.537,0,0,0,2.382-4.923c.4-1.641,0,0,2.382,0s3.176,0,3.176-3.282v-4.376c0-1.094-2.382,0-2.779,0s0,0,0,3.829-3.176-3.282-5.956-3.282,0,0,0,2.735c7.544-6.564,3.971,3.829,5.161,8.2Zm0,97.909h-.4s6.353,0,6.353-1.094Zm0,13.127s0-4.376-2.779-3.282,6.75,2.188,7.941,2.188ZM37.323,298.143Zm0-20.785c0,6.564,3.573-5.47,0-4.923s3.573,2.188,3.97,3.829Zm0-12.581v-2.735c0-2.735,2.779,1.094,3.573,1.641ZM35.337,302.519ZM35.337,296.5ZM35.337,304.707Zm-5.162-32.819,2.382,3.829h4.368v-5.47c0-2.188-4.368-3.282-7.544,0Zm-12.308-6.564s2.779,0,2.382-1.094Z" transform="matrix(0.996, -0.087, 0.087, 0.996, -0.003, 60.761)" fill="#1a0808"/>
</svg>
